# File created by Blade
# Date/Time:  Thu Sep 25 14:26:36 2014
# Frame Rate: 120.000 fps
#------------------------------------------------------
:FULLY-SPECIFIED
:DEGREES
1732
root 11.398440 22.861754 -2.885810 100.461092 87.530911 188.782657
Spine -36.125804 5.163669 -7.141840
Head -5.262430 -4.085912 19.756296
LeftShoulder -25.601393 61.059570 51.574939
LeftArm 132.791611 -44.221830 -171.968427
LeftForeArm 16.665477 -0.000000 59.918207
LeftHand -35.829654 -0.000000 119.811336
LeftHandThumb1 -26.253704 0.000000 33.147579
RightShoulder -16.762231 27.970023 -41.931992
RightArm 185.305622 125.673087 193.182160
RightForeArm -41.350745 0.000000 97.761252
RightHand -15.258405 0.000000 -46.239729
RightHandThumb1 -24.326973 -0.000000 -32.862282
LeftUpLeg 48.839576 -14.269433 18.242326
LeftLeg 108.128090 -0.000000 -0.000000
LeftFoot -18.686040 -12.471791 -28.661210
LeftToeBase -39.634291 -0.000000 0.000000
RightUpLeg 46.332350 17.453699 -18.161004
RightLeg 108.207934 -0.000000 -0.000000
RightFoot -3.439223 3.549681 13.015666
RightToeBase -50.569405 -0.000000 0.000000
1733
root 11.584330 22.720358 -2.910958 105.791055 87.581443 193.447376
Spine -36.448872 5.813760 -6.880832
Head -4.308224 -4.585730 18.596227
LeftShoulder -24.897984 60.739671 51.379790
LeftArm 132.264442 -45.022863 -171.226316
LeftForeArm 16.765361 -0.000000 59.152848
LeftHand -36.312490 -0.000000 118.399233
LeftHandThumb1 -26.253704 0.000000 33.147579
RightShoulder -15.624135 24.224435 -42.409170
RightArm 181.959932 125.002801 194.268829
RightForeArm -42.270044 -0.000000 100.184615
RightHand -14.752278 0.000000 -45.358746
RightHandThumb1 -24.326973 -0.000000 -32.862282
LeftUpLeg 48.444536 -14.452961 18.189004
LeftLeg 108.757936 -0.000000 -0.000000
LeftFoot -18.749614 -12.709730 -28.664076
LeftToeBase -40.330633 -0.000000 0.000000
RightUpLeg 46.198222 17.441725 -17.881552
RightLeg 108.612389 -0.000000 -0.000000
RightFoot -3.963336 4.175399 13.646440
RightToeBase -50.811766 -0.000000 0.000000
1734
root 11.767603 22.578885 -2.935631 111.672717 87.571548 198.645235
Spine -36.641707 6.339699 -6.888801
Head -3.786625 -5.000823 18.246450
LeftShoulder -24.420161 59.645160 51.604165
LeftArm 130.987421 -46.509245 -169.789155
LeftForeArm 16.708319 0.000000 58.302506
LeftHand -36.985901 -0.000000 117.781401
LeftHandThumb1 -26.253704 0.000000 33.147579
RightShoulder -14.777618 25.049482 -41.611155
RightArm 178.430245 128.395991 191.932549
RightForeArm -42.377780 -0.000000 101.350032
RightHand -14.309745 0.000000 -43.708238
RightHandThumb1 -24.326973 -0.000000 -32.862282
LeftUpLeg 48.072885 -14.691937 18.055397
LeftLeg 109.367587 -0.000000 -0.000000
LeftFoot -18.889900 -13.162996 -28.572846
LeftToeBase -40.777867 -0.000000 0.000000
RightUpLeg 46.065913 17.386834 -17.652351
RightLeg 109.002771 -0.000000 -0.000000
RightFoot -4.420767 4.707001 14.049886
RightToeBase -49.988037 -0.000000 0.000000
1735
root 11.956923 22.442189 -2.953534 119.512784 87.443815 205.784470
Spine -36.693319 6.742350 -7.031767
Head -3.660325 -5.245326 18.175655
LeftShoulder -23.541584 57.516044 52.258452
LeftArm 129.624472 -49.235568 -167.991784
LeftForeArm 16.702566 -0.000000 57.140385
LeftHand -37.027637 0.000000 116.525440
LeftHandThumb1 -26.253704 0.000000 33.147579
RightShoulder -14.167434 24.904903 -40.912724
RightArm 175.854791 131.091856 190.914141
RightForeArm -43.090368 -0.000000 102.107006
RightHand -15.177193 -0.000000 -44.067688
RightHandThumb1 -24.326973 -0.000000 -32.862282
LeftUpLeg 47.609549 -14.996469 17.982925
LeftLeg 110.008976 -0.000000 -0.000000
LeftFoot -19.225733 -13.253979 -28.629951
LeftToeBase -40.456400 -0.000000 0.000000
RightUpLeg 45.973334 17.192150 -17.478373
RightLeg 109.329727 -0.000000 -0.000000
RightFoot -4.813845 5.252402 14.554937
RightToeBase -50.558131 -0.000000 0.000000
1736
root 12.147126 22.312286 -2.972634 126.352411 87.362797 211.970972
Spine -36.813773 7.359944 -7.010947
Head -3.140364 -5.689965 17.518928
LeftShoulder -23.051950 56.680340 52.180506
LeftArm 128.488461 -50.695815 -166.476024
LeftForeArm 16.740872 -0.000000 55.927918
LeftHand -37.757074 0.000000 115.480813
LeftHandThumb1 -26.253704 0.000000 33.147579
RightShoulder -13.347560 23.969623 -40.233412
RightArm 173.567671 132.605593 190.741758
RightForeArm -43.172083 0.000000 102.815672
RightHand -14.131148 -0.000000 -42.855062
RightHandThumb1 -24.326973 -0.000000 -32.862282
LeftUpLeg 47.246125 -15.189352 18.032361
LeftLeg 110.604290 -0.000000 -0.000000
LeftFoot -19.669852 -13.184608 -28.721983
LeftToeBase -40.044838 -0.000000 0.000000
RightUpLeg 45.971030 17.101427 -17.193676
RightLeg 109.582433 -0.000000 -0.000000
RightFoot -5.253429 5.996683 14.948368
RightToeBase -50.781477 -0.000000 0.000000
1737
root 12.300906 22.159954 -2.989282 133.652611 87.295108 218.243358
Spine -37.411823 8.205448 -7.162987
Head -2.523051 -6.239681 17.015512
LeftShoulder -22.800002 56.655604 51.648886
LeftArm 127.427462 -51.324950 -165.067457
LeftForeArm 16.594765 -0.000000 54.734230
LeftHand -38.458547 -0.000000 114.811966
LeftHandThumb1 -26.253704 0.000000 33.147579
RightShoulder -13.071708 23.266767 -39.659427
RightArm 171.689203 134.735063 190.791748
RightForeArm -42.672871 -0.000000 103.264364
RightHand -13.353349 -0.000000 -41.482005
RightHandThumb1 -24.326973 -0.000000 -32.862282
LeftUpLeg 46.383444 -15.233708 18.232138
LeftLeg 111.316944 -0.000000 -0.000000
LeftFoot -20.113744 -12.947954 -28.556659
LeftToeBase -39.867710 -0.000000 0.000000
RightUpLeg 45.401172 16.899120 -16.953613
RightLeg 110.014442 -0.000000 -0.000000
RightFoot -5.481636 6.677481 15.541656
RightToeBase -50.898043 -0.000000 0.000000
1738
root 12.472364 22.021045 -3.002167 140.264714 87.117921 224.058980
Spine -37.605863 8.891097 -7.066510
Head -1.869812 -6.391453 16.058700
LeftShoulder -22.354043 56.111884 50.991046
LeftArm 126.433438 -52.763338 -163.610235
LeftForeArm 16.649317 -0.000000 53.477151
LeftHand -39.055584 -0.000000 113.678620
LeftHandThumb1 -26.253704 0.000000 33.147579
RightShoulder -12.730271 23.100165 -39.896515
RightArm 169.326785 137.385913 191.528251
RightForeArm -42.365626 -0.000000 103.745955
RightHand -12.783072 -0.000000 -40.083032
RightHandThumb1 -24.326973 -0.000000 -32.862282
LeftUpLeg 45.772253 -15.379798 18.374120
LeftLeg 111.977344 -0.000000 -0.000000
LeftFoot -20.639185 -12.558596 -28.270567
LeftToeBase -39.414112 -0.000000 0.000000
RightUpLeg 45.176388 16.683977 -16.741296
RightLeg 110.309982 -0.000000 -0.000000
RightFoot -5.783175 7.256801 15.888759
RightToeBase -51.352777 -0.000000 0.000000
1739
root 12.649447 21.889028 -3.015102 146.951697 86.987972 229.993530
Spine -37.673397 9.631044 -6.846214
Head -1.321717 -6.398845 15.211107
LeftShoulder -22.157232 56.055026 50.123443
LeftArm 125.222082 -53.989945 -162.052318
LeftForeArm 16.285979 0.000000 52.121557
LeftHand -39.234038 -0.000000 112.177200
LeftHandThumb1 -26.253704 0.000000 33.147579
RightShoulder -12.287349 22.859390 -39.289548
RightArm 167.402795 139.472151 191.566182
RightForeArm -41.414688 -0.000000 103.704509
RightHand -12.029395 -0.000000 -39.044273
RightHandThumb1 -24.326973 -0.000000 -32.862282
LeftUpLeg 45.239618 -15.493465 18.638888
LeftLeg 112.593484 -0.000000 -0.000000
LeftFoot -21.150392 -12.377138 -28.453644
LeftToeBase -38.759981 -0.000000 0.000000
RightUpLeg 44.972634 16.517471 -16.464875
RightLeg 110.590024 -0.000000 -0.000000
RightFoot -6.033837 7.774562 16.011424
RightToeBase -51.862307 -0.000000 0.000000
